<?xml version="1.0" encoding="UTF-8" standalone="no"?>
<!DOCTYPE svg PUBLIC "-//W3C//DTD SVG 1.1//EN" "http://www.w3.org/Graphics/SVG/1.1/DTD/svg11.dtd">
<svg width="100%" height="100%" viewBox="0 0 300 250" version="1.1" xmlns="http://www.w3.org/2000/svg" xmlns:xlink="http://www.w3.org/1999/xlink" xml:space="preserve" xmlns:serif="http://www.serif.com/" style="fill-rule:evenodd;clip-rule:evenodd;stroke-linejoin:round;stroke-miterlimit:2;">
    <g transform="matrix(1,0,0,1,-125,-110)">
        <g>
            <g>
                <path d="M175.951,305.35L171.386,305.35L171.386,335.969C171.386,345.73 165.768,350.927 157.341,350.927C148.914,350.927 143.296,345.73 143.296,335.969L143.296,305.35L138.731,305.35L138.731,336.039C138.731,347.837 146.526,355 157.341,355C168.156,355 175.951,347.837 175.951,336.039L175.951,305.35Z" style="fill-rule:nonzero;"/>
                <path d="M231.863,305.35L227.158,305.35L227.158,343.483L192.817,305.35L192.677,305.35L192.677,354.508L197.312,354.508L197.312,316.446L231.653,354.508L231.863,354.508L231.863,305.35Z" style="fill-rule:nonzero;"/>
                <rect x="249.221" y="305.35" width="4.705" height="49.159" style="fill-rule:nonzero;"/>
                <path d="M304.29,305.35L270.301,305.35L270.301,309.493L284.978,309.493L284.978,354.508L289.753,354.508L289.753,309.493L304.29,309.493L304.29,305.35Z" style="fill-rule:nonzero;"/>
                <path d="M355.006,354.508L340.328,335.126C348.264,333.792 353.391,328.103 353.391,320.378C353.391,311.53 346.579,305.35 336.536,305.35L320.384,305.35L320.384,354.508L325.089,354.508L325.089,335.477L335.483,335.477L349.669,354.508L355.006,354.508ZM325.089,309.493L335.974,309.493C343.84,309.493 348.685,313.707 348.685,320.378C348.685,327.12 343.84,331.334 335.974,331.334L325.089,331.334L325.089,309.493Z" style="fill-rule:nonzero;"/>
                <path d="M390.693,305.35L387.111,305.35L366.535,354.508L371.521,354.508L377.982,339.199L399.822,339.199L406.283,354.508L411.269,354.508L390.693,305.35ZM388.867,312.653L398.277,335.266L379.527,335.266L388.867,312.653Z" style="fill-rule:nonzero;"/>
            </g>
            <g>
                <path d="M227.873,115L227.873,274.045L256.385,274.045C246.096,268.769 239.83,258.081 239.83,240.955L239.83,202.959L260.998,202.959L260.998,242.927C260.998,254.366 265.994,258.967 275.197,258.967C284.4,258.967 289.397,254.366 289.397,242.927L289.397,202.959L310.17,202.959L310.17,240.955C310.17,258.081 303.847,268.769 293.595,274.045L322.127,274.045L322.127,115L227.873,115Z" style="fill:rgb(168,0,31);"/>
            </g>
        </g>
    </g>
</svg>
